<svg width="301" height="301" viewBox="0 0 301 301" fill="none" xmlns="http://www.w3.org/2000/svg">
<g clip-path="url(#clip0_834_2315)">
<path d="M85.702 44.5651C110.198 -15.7102 194.76 -14.5734 217.69 46.3382C224.576 64.6914 238.883 79.316 256.741 86.3441C315.637 109.384 314.536 195.073 255.036 216.515C236.896 223.01 222.306 237.316 214.92 255.455C190.32 315.981 105.258 314.454 82.7168 253.149C75.7597 235.082 61.5595 220.633 43.845 213.712C-15.0508 190.672 -13.9497 104.983 45.5503 83.5415C63.6903 77.046 78.2802 62.7395 85.6663 44.6008H85.702V44.5651Z" fill="url(#paint0_linear_834_2315)"/>
<path d="M87.4393 45.9717C111.278 -12.6841 193.565 -11.5795 215.885 47.6984C222.588 65.5582 236.509 79.7896 253.888 86.6283C311.2 109.046 310.131 192.436 252.229 213.303C234.575 219.623 220.375 233.547 213.193 251.199C189.25 310.098 106.477 308.611 84.5399 248.954C77.7687 231.37 63.951 217.31 46.712 210.575C-10.6001 188.157 -9.53115 104.767 48.3708 83.9007C66.0246 77.5804 80.2248 63.6564 87.4071 46.0039H87.4428V45.9682L87.4393 45.9717Z" fill="url(#paint1_linear_834_2315)"/>
<path d="M50.9771 86.9413C68.6309 80.621 82.8311 66.697 90.0134 49.0445H90.0492V49.0087C110.256 -0.699333 172.44 -7.48437 204.523 27.6884C173.331 -10.8733 108.203 -5.13213 87.4358 45.9701V46.0059H87.4C80.2141 63.6584 66.0139 77.5788 48.3638 83.9027C0.707954 101.073 -8.44782 160.597 21.758 193.629C-5.24813 160.107 4.75495 103.6 50.9771 86.9413Z" fill="#ECF7FF"/>
<path d="M87.1936 246.029C80.9837 228.591 67.3055 214.567 49.9592 207.467V207.431H49.927C1.08074 187.48 -5.5832 126.054 28.9771 94.3628C-8.9116 125.174 -3.27013 189.503 46.9383 210.016H46.9704V210.052C64.3132 217.151 77.9914 231.175 84.2049 248.613C101.079 295.687 159.564 304.731 192.019 274.892C159.081 301.567 103.564 291.69 87.1972 246.029H87.1936Z" fill="#F8FCFF"/>
<path d="M249.613 210.253C231.959 216.573 217.759 230.497 210.576 248.15H210.541V248.186C190.338 297.897 128.153 304.682 96.0703 269.51C127.263 308.071 192.39 302.33 213.154 251.231V251.196H213.19C220.376 233.543 234.576 219.623 252.226 213.299C299.882 196.125 309.038 136.601 278.832 103.569C305.838 137.091 295.835 193.598 249.613 210.253Z" fill="#616161"/>
<path opacity="0.3" d="M251.314 212.457C233.324 218.885 218.852 233.045 211.53 250.998H211.495V251.033C190.906 301.592 127.534 308.492 94.8398 272.718C126.626 311.934 192.997 306.096 214.162 254.129V254.093H214.197C221.519 236.141 235.991 221.984 253.981 215.553C302.545 198.09 311.876 137.55 281.094 103.958C308.619 138.047 298.423 195.516 251.317 212.457H251.314Z" fill="#D5FDFF"/>
<path d="M119.416 185.468H96.0703V111.683H119.416V185.468Z" fill="black"/>
<path d="M161.101 185.468H137.756V111.683H185.233C203.931 111.683 216.265 120.727 216.265 137.994C216.265 155.26 203.931 164.305 185.233 164.305H161.065V185.468H161.101ZM184.017 144.965C190.059 144.965 193.277 142.176 193.277 137.994C193.277 133.811 190.095 131.023 184.017 131.023H161.101V145.001H184.017V144.965Z" fill="black"/>
</g>
<defs>
<linearGradient id="paint0_linear_834_2315" x1="28.9369" y1="79.9345" x2="271.676" y2="220.089" gradientUnits="userSpaceOnUse">
<stop stop-color="#BFBFBF"/>
<stop offset="0.59" stop-color="#616161"/>
</linearGradient>
<linearGradient id="paint1_linear_834_2315" x1="76.4245" y1="74.7062" x2="252.185" y2="250.479" gradientUnits="userSpaceOnUse">
<stop offset="0.255" stop-color="#BFBFBF"/>
<stop offset="1" stop-color="#616161"/>
</linearGradient>
<clipPath id="clip0_834_2315">
<rect width="300" height="300.021" fill="white" transform="translate(0.292969)"/>
</clipPath>
</defs>
</svg>
