<?xml version="1.0" encoding="UTF-8"?>
<svg id="Layer_1" xmlns="http://www.w3.org/2000/svg" version="1.1" viewBox="0 0 398.4 91.4">
  <!-- Generator: Adobe Illustrator 29.0.1, SVG Export Plug-In . SVG Version: 2.1.0 Build 192)  -->
  <defs>
    <style>
      .st0 {
        fill: #fff;
      }
    </style>
  </defs>
  <path class="st0" d="M352.2,89.7h18.4v-36.9l27.7-50.2h-21.2l-24.9,46.5v40.6Z"/>
  <path class="st0" d="M357.4,40.9l-20.8-38.3h-20.9l20.9,38.3s20.8,0,20.8,0Z"/>
  <path class="st0" d="M286.3,62.6l14.1,27.1h20l-17.6-32c8.1-5.6,12.9-14.6,12.9-24.9,0-16.8-10.5-30.1-33.1-30.1h-36.2v87.1h19.1v-27l20.8-.2ZM265.5,18.7h17.2c9.3,0,14.8,4.9,14.8,13.8s-4.9,13.3-14.2,13.3h-17.8v-27.1Z"/>
  <path class="st0" d="M100.9,89.7h19.3V19.8h27.8V2.6h-74.9v17.2h27.8s0,69.9,0,69.9Z"/>
  <path class="st0" d="M34.9,30.2v13.3c-9.8,0-16.9-4.2-16.9-13s6.2-14,17.4-14,14.8,3.8,16.1,8.8h17C67.3,11.3,54.1,0,35,0S.6,12.5.6,30.9s14.9,29.2,34.4,29.2v-12.5c10.3,0,17.4,4.6,17.4,13.6s-7.3,14-17.3,14-15.4-4-17.3-9.5H0c2.5,14.5,15.8,25.8,35,25.8s34.7-11.5,34.7-30.7c0-18-13.6-30.6-34.8-30.6Z"/>
  <path class="st0" d="M192.9,73.9c-15.4,0-26.6-12.8-26.6-28.1s9.9-27.7,26.6-27.7,27.4,11.8,27.4,27.7h17.3C237.6,21,218.3.1,192.9.1c-27.3-.1-44.9,18.9-44.9,45.6s19.5,45.7,44.9,45.7v-17.5Z"/>
  <path class="st0" d="M192.4,81c19.4,0,34-15.3,34-35.7h-15.8c0,11-8,19-18.1,19v16.7h0Z"/>
</svg>